<svg id="Layer_1" data-name="Layer 1" xmlns="http://www.w3.org/2000/svg" viewBox="0 0 2048 2048"><defs><style>.cls-1{font-size:178.65px;font-family:Rift-Light, Rift;font-weight:300;}.cls-2{letter-spacing:-0.01em;}.cls-3{font-size:57.49px;font-family:Rift-Medium, Rift;font-weight:500;}.cls-4{letter-spacing:-0.01em;}.cls-5{letter-spacing:0em;}.cls-6{letter-spacing:0em;}.cls-7{fill:#ed1c24;}</style></defs><title>Artboard 1</title><text class="cls-1" transform="translate(503.59 810.6)">Alexander Hic<tspan class="cls-2" x="891.1" y="0">k</tspan><tspan x="966.14" y="0">s</tspan></text><text class="cls-3" transform="translate(891.63 637.33)"><tspan class="cls-4">Y</tspan><tspan class="cls-5" x="23.23" y="0">ou’ve </tspan><tspan class="cls-6" x="139.35" y="0">f</tspan><tspan x="160.11" y="0">ound</tspan></text><path class="cls-7" d="M1154.81,474.52l-10.58-10.58-33.73,33.74-10.8-10.8,47.59-47.56v-15H1031v15l45.34,45.31H1016V417.34h-15v67.35h-15l0-67.36-10.58-10.58L893.18,489l10.59,10.58h67.32V552h15V499.6h15V552h15l0-52.46,75.3,0,8.66,8.66-33.27,33.27,10.58,10.58,33.27-33.27L1143.65,552l10.58-10.58-33.15-33.15ZM971.09,484.63H918.73l52.36-52.35Zm118-8.33-37-37h73.95Z"/></svg>