<svg id="Layer_1" data-name="Layer 1" xmlns="http://www.w3.org/2000/svg" viewBox="0 0 512 284.46"><defs><style>.cls-1{fill:#ed1c24;}</style></defs><title>MainLogo</title><path class="cls-1" d="M512,132.63l-20.71-20.71-66,66-21.12-21.12,93.13-93.07V34.45H269.61V63.74l88.72,88.67h-118V20.72H211V152.51H181.74l0-131.8L161,0,0,161,20.71,181.7H152.46V284.31h29.28V181.7H211V284.31h29.29l-.06-102.66,147.36,0,16.94,16.94-65.1,65.11,20.71,20.71,65.1-65.11,64.87,64.87,20.71-20.71L446,198.64ZM152.46,152.41H50L152.46,50Zm231-16.31L311.08,63.74H455.81Z"/></svg>